PathFileType	4	(X/Y/Z)	8_coords_data.trc
DataRate	CameraRate	NumFrames	NumMarkers	Units	OrigDataRate	OrigDataStartFrame	OrigNumFrames
30.0	30.0	5	21	m	30.0	29	47
Frame#	Time	THUMB_TIP	THUMB_IP	THUMB_MCP	THUMB_CMC	INDEX_TIP	INDEX_DIP	INDEX_PIP	INDEX_MCP	MIDDLE_TIP	MIDDLE_DIP	MIDDLE_PIP	MIDDLE_MCP	RING_TIP	RING_DIP	RING_PIP	RING_MCP	PINKY_TIP	PINKY_DIP	PINKY_PIP	PINKY_MCP	WRIST
X1	Y1	Z1	X2	Y2	Z2	X3	Y3	Z3	X4	Y4	Z4	X5	Y5	Z5	X6	Y6	Z6	X7	Y7	Z7	X8	Y8	Z8	X9	Y9	Z9	X10	Y10	Z10	X11	Y11	Z11	X12	Y12	Z12	X13	Y13	Z13	X14	Y14	Z14	X15	Y15	Z15	X16	Y16	Z16	X17	Y17	Z17	X18	Y18	Z18	X19	Y19	Z19	X20	Y20	Z20	X21	Y21	Z21
27	0.9333333333333294	0.5417383724016953	-0.006073048438445916	-0.1374146537897915	0.5207689820483735	-0.013356451258362045	-0.1314786019392046	0.49390317573093656	-0.018040421506633653	-0.11647497325720685	0.4798019573261266	-0.024298640762029144	-0.07461950370720359	0.525353661304942	-0.013029686175315192	-0.12026835283394605	0.5362390176478246	-0.0003086222554896656	-0.12717368048990707	0.5342709341042886	0.024658727817302384	-0.12935723504803281	0.4980857885310064	0.029860039702438224	-0.10751192231248412	0.5337863360509769	-0.02057310323474093	-0.11179992024827862	0.5430551727678316	-0.005014598372209855	-0.11194686363494624	0.5466308112721158	0.023878531237350176	-0.1106009733526994	0.5088419112251354	0.03302659129937269	-0.08859052239546167	0.5331277853778738	-0.0177610002946198	-0.09506494964208063	0.5465203378134665	-0.005693519397246161	-0.09494067554411208	0.5545991045153064	0.017677704800279415	-0.0919912032038039	0.520411030454918	0.027906382067147795	-0.07298408381627838	0.5311774858640319	-0.02721472694178717	-0.08167376263516495	0.5462256182851616	-0.01906462911594764	-0.0820337849475188	0.5525805566770948	6.3613282936692e-05	-0.07615695589059923	0.5255801285245028	0.014703940000991511	-0.05724872582627727	0.4622830810018608	-0.023011742144276925	-0.051989820119430985
28	0.9666666666666625	0.5366037119035653	-0.0059749905478027054	-0.14450077579151194	0.5167172991801579	-0.012761615033075824	-0.13520172653418466	0.4915826834025592	-0.017499061089638612	-0.11746397880304232	0.47903544317438307	-0.02426336711019006	-0.07519459358493476	0.5380361594861033	-0.013246821025532984	-0.1261599867199351	0.5433551672004062	0.003450211955405069	-0.13073352436257607	0.535961438389211	0.02746486389240932	-0.1299340873037389	0.4996639245322626	0.028567372184076456	-0.10768749077142743	0.5470569518578152	-0.019046408231099266	-0.11705611015758687	0.551846263785103	-0.0016870349837722065	-0.11512876698027749	0.5488489577316261	0.026972472132637093	-0.11076317901686578	0.510305069726607	0.0317224181738226	-0.08867348388401325	0.5454719845392145	-0.018505594945868675	-0.10006938565708784	0.5549116256912103	-0.003372845615705611	-0.09744391948286356	0.5569346335564256	0.020802477404000208	-0.09181887058795052	0.5216088133650038	0.026500971241835147	-0.07299509759252015	0.5423967082435824	-0.028033170914750216	-0.08629442498563712	0.5544547699385817	-0.01620555552819203	-0.08351761702914401	0.5556420856448462	0.00318947518668089	-0.07556556798611153	0.5263642904890106	0.013373077358951213	-0.05712679338990079	0.4622830810018608	-0.023011742144276925	-0.051989820119430985
29	0.9999999999999956	0.530478743852579	-0.004980720488005352	-0.15086903507355742	0.5121955645674767	-0.011518026634043221	-0.13858127760598904	0.48909694943358284	-0.016650000189516678	-0.11835909111881175	0.47821838416500917	-0.0242207884885689	-0.07576531243895859	0.5523477273606903	-0.009197423583698683	-0.1331716647482237	0.5501436127790468	0.008753789220899089	-0.1341181518083744	0.5374625530166991	0.030099032582017626	-0.13017085625845726	0.5013359623225108	0.027176204175674235	-0.10781101249957417	0.5621520230936424	-0.01364652193575433	-0.12235958248339793	0.5611713478440578	0.003928108729399082	-0.11809687993239815	0.5508412427526718	0.03011972417958264	-0.11056708850695826	0.5118613771324659	0.03027526944249248	-0.08873376986544416	0.561228692349345	-0.015626615260169063	-0.10524439633194653	0.5642771356490133	0.0012081122493504681	-0.0995611804176128	0.5589482189782325	0.02405809096281597	-0.0912148579394162	0.5228749669300833	0.024951390589358136	-0.07297634548779564	0.5583417922076263	-0.025777329615982225	-0.09136145332308993	0.5634550507204666	-0.011091416127275489	-0.08420753604770281	0.5583150563059384	0.006763419287153849	-0.07443014740132789	0.5271758824819918	0.011926592504766464	-0.056978014383069986	0.4622830810018609	-0.023011742144276925	-0.051989820119430985
30	1.0333333333333288	0.5238682590689199	-0.0031425237076154744	-0.1561351678449813	0.507519556300603	-0.009707991764600132	-0.14138340364587815	0.4866135886459979	-0.01557143125781002	-0.11908137248873736	0.4774025706301249	-0.02418950117943519	-0.0762938039911323	0.5645821453853583	-0.0005392067903097209	-0.1392602988378704	0.5558309157557635	0.015116006717425412	-0.1367442960562091	0.5388173049668412	0.03236883125037038	-0.13004452542144204	0.5030654155021896	0.025691512979925668	-0.10788934737154768	0.576601285784511	-0.0037385630823008054	-0.12652892700575896	0.5695025343684397	0.011673241185364058	-0.12019773299925327	0.5525192160924253	0.03306128776040762	-0.11002286621686441	0.5134596916884837	0.028715242880458458	-0.0887716693508201	0.5774321558324842	-0.007168529741986007	-0.10872524958108121	0.5729032764431987	0.008258713040228627	-0.10057114438088222	0.5605000439767488	0.027197127075732186	-0.09019442634467005	0.5241517998915073	0.023319261921157963	-0.07291761680810767	0.5763778644592091	-0.016480736723586076	-0.09355146289501977	0.5716861943764433	-0.003529908362990497	-0.08338955969685485	0.560342894511235	0.010543578394817565	-0.07270880421581495	0.5279748583760936	0.010426630103383072	-0.05679717290877026	0.4622830810018609	-0.023011742144276925	-0.051989820119430985
31	1.0666666666666622	0.5172276934096678	-0.0004482203005261587	-0.16009464782164942	0.50297359496644	-0.007369680538414802	-0.14345391268926733	0.48422885320437137	-0.014294199066648305	-0.11958959414828417	0.4766266941412374	-0.024180026085668938	-0.07676007626950326	0.5727278094540421	0.00980888783167233	-0.1432100568185821	0.5599490896957007	0.02169315974970254	-0.13836563710967004	0.5400037685942075	0.034236609681298824	-0.1295988895387707	0.50475830499859	0.024210592566086042	-0.10789929574682477	0.5875980754749307	0.008952429739668477	-0.1284411046471759	0.5756900507270613	0.020353794138701198	-0.12094391607781238	0.5538844531549103	0.035639120920926026	-0.10909975086104798	0.5150291358631972	0.02712696942683812	-0.08875385407319407	0.5896748121627822	0.004922203284114968	-0.10924594546925769	0.5792036932051636	0.016399959674850306	-0.10010172456147447	0.5616040033581723	0.029931934987791564	-0.08881826142200991	0.5254086531326316	0.021634865534394865	-0.07282525999838811	0.5887770521222586	-0.002920706654937044	-0.09104868115326761	0.5775019204979177	0.005084921536394615	-0.0809600080930509	0.5616212584931772	0.014055030629810394	-0.07056030924436245	0.5287626574320555	0.00885706268060027	-0.05662557148202768	0.4622830810018609	-0.023011742144276925	-0.051989820119430985
